<svg xmlns="http://www.w3.org/2000/svg" viewBox="0 0 24 24" id="audi">
  <path d="M4.5 16.5C2.019 16.5 0 14.481 0 12s2.019-4.5 4.5-4.5S9 9.519 9 12s-2.019 4.5-4.5 4.5zm0-7.5c-1.654 0-3 1.346-3 3s1.346 3 3 3 3-1.346 3-3-1.346-3-3-3z"></path>
  <path d="M9.5 16.5C7.019 16.5 5 14.481 5 12s2.019-4.5 4.5-4.5S14 9.519 14 12s-2.019 4.5-4.5 4.5zm0-7.5c-1.654 0-3 1.346-3 3s1.346 3 3 3 3-1.346 3-3-1.346-3-3-3z"></path>
  <path d="M14.5 16.5c-2.481 0-4.5-2.019-4.5-4.5s2.019-4.5 4.5-4.5S19 9.519 19 12s-2.019 4.5-4.5 4.5zm0-7.5c-1.654 0-3 1.346-3 3s1.346 3 3 3 3-1.346 3-3-1.346-3-3-3z"></path>
  <path d="M19.5 16.5c-2.481 0-4.5-2.019-4.5-4.5s2.019-4.5 4.5-4.5S24 9.519 24 12s-2.019 4.5-4.5 4.5zm0-7.5c-1.654 0-3 1.346-3 3s1.346 3 3 3 3-1.346 3-3-1.346-3-3-3z"></path>
</svg>
